<svg class="svg-icon" style="width: 1em; height: 1em;vertical-align: middle;fill: currentColor;overflow: hidden;" viewBox="0 0 1024 1024" version="1.1" xmlns="http://www.w3.org/2000/svg"><path d="M91.97037 479.762963c17.066667-21.807407 40.77037-38.874074 68.266667-52.148148l-2.844444-17.066667c5.688889-5.688889 10.42963-11.377778 16.118518-17.066667 107.140741-11.377778 216.177778-17.066667 328.059259-11.377777 70.162963 19.911111 133.688889 47.407407 190.577778 81.54074 70.162963 0 138.42963 3.792593 202.903704 16.118519 18.014815 13.274074 29.392593 31.288889 33.185185 54.044444l10.42963 1.896297-8.533334 52.148148c-11.377778 10.42963-23.703704 19.911111-35.081481 30.340741h-42.666667c3.792593-8.533333 6.637037-18.962963 6.637037-29.392593 0-19.911111-8.533333-37.925926-20.859259-51.2-13.274074-13.274074-31.288889-20.859259-51.2-20.859259-19.911111 0-37.925926 8.533333-51.2 20.859259-13.274074 13.274074-20.859259 31.288889-20.859259 51.2 0 10.42963 1.896296 20.859259 6.637037 29.392593H308.148148c3.792593-8.533333 6.637037-18.962963 6.637037-29.392593 0-19.911111-8.533333-37.925926-20.859259-51.2-13.274074-13.274074-31.288889-20.859259-51.2-20.859259-19.911111 0-37.925926 8.533333-51.2 20.859259-13.274074 13.274074-20.859259 31.288889-20.859259 51.2 0 10.42963 1.896296 20.859259 6.637037 29.392593h-85.333334c-5.688889-17.066667-8.533333-36.977778-9.481481-59.733334 4.740741-1.896296 9.481481-3.792593 14.222222-4.74074-6.637037-26.548148-8.533333-51.2-4.740741-73.955556z m110.933334-2.844444l91.022222 0.948148 16.118518-69.214815c-54.044444 8.533333-94.814815 23.703704-112.829629 50.251852 1.896296 5.688889 3.792593 11.377778 5.688889 18.014815z m-104.296297 13.274074c-1.896296 23.703704 0.948148 43.614815 6.637037 61.629629 3.792593 0 8.533333-0.948148 12.325926-0.948148 1.896296-18.962963 8.533333-35.081481 25.6-43.614815 0-5.688889 0-12.325926-0.948148-18.014815-14.222222 0-28.444444 0.948148-43.614815 0.948149z m108.088889 20.859259c-1.896296 2.844444-0.948148 3.792593 1.896297 3.792592 25.6-9.481481 48.355556-8.533333 69.214814 0 1.896296 0 2.844444-0.948148-0.948148-4.74074-17.066667-16.118519-53.096296-15.17037-70.162963 0.948148z m538.548148 0c-1.896296 2.844444-0.948148 3.792593 1.896297 3.792592 25.6-9.481481 48.355556-8.533333 69.214815 0 1.896296 0 2.844444-0.948148-0.948149-4.74074-17.066667-16.118519-53.096296-15.17037-70.162963 0.948148z m171.614815 17.066667c-2.844444-11.377778-8.533333-20.859259-16.118518-30.340741-20.859259-1.896296-42.666667-2.844444-66.370371-4.740741 0 3.792593 0 6.637037-0.948148 10.42963 13.274074 3.792593 24.651852 11.377778 31.288889 24.651852h52.148148z m-582.162963 27.496296V568.888889H692.148148v-13.274074H334.696296z m-7.585185-149.807408c-1.896296 20.859259-5.688889 59.733333-6.637037 71.111112l138.42963 0.948148-15.170371-76.8H388.740741c-20.859259 0.948148-41.718519 2.844444-61.62963 4.74074z m133.688889-3.792592c6.637037 19.911111 22.755556 66.37037 26.548148 76.8l182.044445 0.948148c-46.459259-32.237037-103.348148-56.888889-166.874074-76.8-14.222222-0.948148-28.444444-0.948148-41.718519-0.948148zM241.777778 528.118519c-17.066667 0-32.237037 6.637037-42.666667 18.014814-11.377778 11.377778-18.014815 25.6-18.014815 42.666667 0 17.066667 6.637037 32.237037 18.014815 42.666667 11.377778 11.377778 25.6 18.014815 42.666667 18.014814 17.066667 0 32.237037-6.637037 42.666666-18.014814 11.377778-11.377778 18.014815-26.548148 18.014815-42.666667 0-17.066667-6.637037-32.237037-18.014815-42.666667-10.42963-11.377778-25.6-18.014815-42.666666-18.014814z m27.496296 33.185185c-6.637037-6.637037-17.066667-11.377778-27.496296-11.377778-10.42963 0-20.859259 4.740741-27.496297 11.377778-6.637037 6.637037-11.377778 17.066667-11.377777 27.496296 0 10.42963 4.740741 20.859259 11.377777 27.496296 6.637037 6.637037 17.066667 11.377778 27.496297 11.377778 10.42963 0 20.859259-4.740741 27.496296-11.377778 6.637037-6.637037 11.377778-17.066667 11.377778-27.496296 0-10.42963-4.740741-20.859259-11.377778-27.496296z m516.740741-33.185185c-17.066667 0-32.237037 6.637037-42.666667 18.014814-11.377778 11.377778-18.014815 25.6-18.014815 42.666667 0 17.066667 6.637037 32.237037 18.014815 42.666667 11.377778 11.377778 26.548148 18.014815 42.666667 18.014814 17.066667 0 32.237037-6.637037 42.666666-18.014814 11.377778-11.377778 18.014815-26.548148 18.014815-42.666667 0-17.066667-6.637037-32.237037-18.014815-42.666667-10.42963-11.377778-25.6-18.014815-42.666666-18.014814z m27.496296 33.185185c-6.637037-6.637037-17.066667-11.377778-27.496296-11.377778-10.42963 0-20.859259 4.740741-27.496296 11.377778-6.637037 6.637037-11.377778 17.066667-11.377778 27.496296 0 10.42963 4.740741 20.859259 11.377778 27.496296 6.637037 6.637037 17.066667 11.377778 27.496296 11.377778 10.42963 0 20.859259-4.740741 27.496296-11.377778 6.637037-6.637037 11.377778-17.066667 11.377778-27.496296 0-10.42963-3.792593-20.859259-11.377778-27.496296z"  /></svg>