<svg class="svg-icon" style="width: 1em; height: 1em;vertical-align: middle;fill: currentColor;overflow: hidden;" viewBox="0 0 1024 1024" version="1.1" xmlns="http://www.w3.org/2000/svg"><path d="M55.940741 546.133333c0.948148-18.014815 2.844444-35.081481 3.792592-53.096296 31.288889-35.081481 62.577778-70.162963 92.918519-105.244444-4.740741-5.688889-8.533333-11.377778-13.274074-17.066667 4.740741-6.637037 8.533333-12.325926 13.274074-18.962963 131.792593-12.325926 269.274074-14.222222 411.496296-6.637037 61.62963 32.237037 113.777778 71.111111 161.185185 118.518518 77.748148 5.688889 135.585185 15.17037 211.437037 36.977778 18.014815 18.962963 31.288889 40.77037 38.874074 66.370371 3.792593 31.288889-3.792593 55.940741-16.118518 77.748148l-55.940741 7.585185c1.896296-8.533333 3.792593-18.014815 3.792593-26.548148 0-28.444444-11.377778-54.044444-30.340741-73.007408s-44.562963-30.340741-73.007407-30.34074-54.044444 11.377778-73.007408 30.34074-30.340741 44.562963-30.340741 73.007408c0 12.325926 1.896296 23.703704 5.688889 35.081481H306.251852c3.792593-11.377778 5.688889-22.755556 5.688889-35.081481 0-28.444444-11.377778-54.044444-30.340741-73.007408S237.037037 522.42963 208.592593 522.42963s-54.044444 11.377778-73.007408 30.34074-30.340741 44.562963-30.340741 73.007408c0 6.637037 0.948148 14.222222 1.896297 20.859259l-53.096297-13.274074c-2.844444-26.548148-6.637037-52.148148-9.481481-78.696296 4.740741-2.844444 7.585185-5.688889 11.377778-8.533334z m749.037037-8.533333c-24.651852 0-46.459259 9.481481-62.577778 25.6-16.118519 16.118519-25.6 37.925926-25.6 62.577778 0 24.651852 9.481481 46.459259 25.6 62.577778 16.118519 16.118519 37.925926 25.6 62.577778 25.6 24.651852 0 46.459259-9.481481 62.577778-25.6 16.118519-16.118519 25.6-37.925926 25.6-62.577778 0-24.651852-9.481481-46.459259-25.6-62.577778-16.118519-15.17037-37.925926-25.6-62.577778-25.6z m-595.437037 0c-24.651852 0-46.459259 9.481481-62.577778 25.6-16.118519 16.118519-25.6 37.925926-25.6 62.577778 0 24.651852 9.481481 46.459259 25.6 62.577778 16.118519 16.118519 37.925926 25.6 62.577778 25.6 24.651852 0 46.459259-9.481481 62.577778-25.6 16.118519-16.118519 25.6-37.925926 25.6-62.577778 0-24.651852-9.481481-46.459259-25.6-62.577778-16.118519-15.17037-37.925926-25.6-62.577778-25.6z m8.533333 91.022222l36.977778-8.533333c0-4.740741-1.896296-9.481481-3.792593-14.222222l-36.977778 13.274074 2.844445-38.874074c-4.740741-0.948148-9.481481-0.948148-14.222222 0l1.896296 38.874074-36.02963-14.222222c-1.896296 3.792593-3.792593 8.533333-4.74074 14.222222l37.925926 9.481481-22.755556 31.288889c3.792593 2.844444 7.585185 5.688889 12.325926 7.585185l18.962963-34.133333 22.755555 31.288889c3.792593-1.896296 7.585185-4.740741 11.377778-9.481482L218.074074 628.622222z m27.496296-37.925926c-9.481481-9.481481-21.807407-15.17037-36.029629-15.17037s-26.548148 5.688889-36.02963 15.17037-15.17037 21.807407-15.17037 36.02963 5.688889 26.548148 15.17037 36.02963 21.807407 15.17037 36.02963 15.17037 26.548148-5.688889 36.029629-15.17037 15.17037-21.807407 15.170371-36.02963c-0.948148-14.222222-6.637037-27.496296-15.170371-36.02963z m566.992593 37.925926l36.977778-8.533333c0-4.740741-1.896296-9.481481-3.792593-14.222222l-36.977778 13.274074 2.844445-38.874074c-4.740741-0.948148-9.481481-0.948148-14.222222 0l1.896296 38.874074-36.02963-14.222222c-1.896296 3.792593-3.792593 8.533333-4.74074 14.222222l37.925925 9.481481-22.755555 31.288889c3.792593 2.844444 7.585185 5.688889 12.325926 7.585185l18.962963-34.133333 22.755555 31.288889c3.792593-1.896296 7.585185-4.740741 11.377778-9.481482l-26.548148-26.548148z m28.444444-37.925926c-9.481481-9.481481-21.807407-15.17037-36.029629-15.17037s-26.548148 5.688889-36.02963 15.17037-15.17037 21.807407-15.17037 36.02963 5.688889 26.548148 15.17037 36.02963 21.807407 15.17037 36.02963 15.17037 26.548148-5.688889 36.029629-15.17037 15.17037-21.807407 15.170371-36.02963c-0.948148-14.222222-6.637037-27.496296-15.170371-36.02963zM203.851852 460.8h49.303704l7.585185-91.022222c-10.42963 0-20.859259 0.948148-31.288889 0.948148-16.118519 23.703704-25.6 41.718519-36.02963 68.266667 3.792593 7.585185 7.585185 14.222222 10.42963 21.807407zM68.266667 528.118519c36.02963-2.844444 39.822222-18.962963 48.355555-51.2l-22.755555-5.688889-23.703704 26.548148-1.896296 30.340741z m217.125926-159.288889l5.688888 91.97037 160.237038 0.948148-9.481482-95.762963c-53.096296-0.948148-103.348148 0.948148-156.444444 2.844445z m180.148148-1.896297l22.755555 95.762963 115.674074 0.948148 8.533334-33.185185c12.325926 7.585185 23.703704 15.17037 34.133333 25.6l2.844444-4.74074c-26.548148-29.392593-59.733333-55.940741-99.555555-78.696297-29.392593-2.844444-57.837037-4.740741-84.385185-5.688889z m35.081481 133.688889c0 21.807407 42.666667 21.807407 42.666667 0h-42.666667z m-199.111111 0c0 21.807407 42.666667 21.807407 42.666667 0h-42.666667z m634.311111 12.325926c-17.066667 18.962963-0.948148 48.355556 29.392593 49.303704-6.637037-17.066667-16.118519-34.133333-29.392593-49.303704z"  /></svg>