<svg class="svg-icon" style="width: 1em; height: 1em;vertical-align: middle;fill: currentColor;overflow: hidden;" viewBox="0 0 1024 1024" version="1.1" xmlns="http://www.w3.org/2000/svg"><path d="M186.785185 390.637037c-9.481481 29.392593-18.014815 58.785185-27.496296 88.177778 0 3.792593 0.948148 7.585185 0.948148 11.377778H170.666667v53.096296h-12.325926V568.888889c11.377778 25.6 23.703704 51.2 35.081481 76.8h18.014815c-3.792593-10.42963-5.688889-20.859259-5.688889-32.237037 0-25.6 10.42963-48.355556 27.496296-65.422222 17.066667-17.066667 39.822222-27.496296 65.422223-27.496297 51.2 0 91.97037 41.718519 91.97037 91.970371 0 11.377778-1.896296 22.755556-5.688889 32.237037h277.807408c-3.792593-10.42963-5.688889-20.859259-5.688889-32.237037 0-25.6 10.42963-48.355556 27.496296-65.422223 17.066667-17.066667 39.822222-27.496296 65.422222-27.496296 51.2 0 91.97037 41.718519 91.970371 91.970371 0 11.377778-1.896296 22.755556-5.688889 32.237037h34.133333c18.962963-14.222222 36.02963-29.392593 39.822222-57.837037 1.896296-36.977778-0.948148-73.007407-11.377778-108.088889-56.888889-16.118519-116.622222-24.651852-179.2-30.340741-2.844444 2.844444-4.740741 5.688889-7.585185 9.481481-46.459259-49.303704-107.140741-88.177778-149.807407-110.933333-125.155556-11.377778-251.259259-11.377778-379.259259 6.637037-1.896296 4.740741-4.740741 10.42963-6.637037 15.17037 2.844444 7.585185 6.637037 15.17037 10.429629 22.755556z m65.422222 72.059259c5.688889-29.392593 11.377778-58.785185 20.85926-90.074074 20.859259-2.844444 41.718519-4.740741 62.577777-5.688889l-17.066666 95.762963h-66.370371z m644.740741 46.45926L900.740741 540.444444c-0.948148 0.948148-72.059259-18.014815-74.903704-19.911111-6.637037-3.792593-5.688889-18.014815-5.688889-18.014814l76.8 6.637037z m-534.755555-17.066667h34.133333c2.844444 0 4.740741 1.896296 4.740741 4.740741s-1.896296 4.740741-4.740741 4.74074h-34.133333c-2.844444 0-4.740741-1.896296-4.740741-4.74074-0.948148-1.896296 1.896296-4.740741 4.740741-4.740741z m145.066666 0h34.133334c2.844444 0 4.740741 1.896296 4.74074 4.740741s-1.896296 4.740741-4.74074 4.74074h-34.133334c-2.844444 0-4.740741-1.896296-4.74074-4.74074 0-1.896296 1.896296-4.740741 4.74074-4.740741z m-171.614815-29.392593l10.42963-96.711111c38.874074-1.896296 79.644444-2.844444 121.362963-1.896296l-7.585185 98.607407H335.644444z m161.185186 0L493.037037 365.037037c24.651852 0.948148 49.303704 1.896296 73.955556 3.792593 41.718519 24.651852 76.8 57.837037 110.933333 94.814814H496.82963v-0.948148z m-198.162963 70.162963c21.807407 0 41.718519 8.533333 55.94074 22.755556s22.755556 34.133333 22.755556 55.940741c0 21.807407-8.533333 41.718519-22.755556 55.94074s-34.133333 22.755556-55.94074 22.755556c-21.807407 0-41.718519-8.533333-55.940741-22.755556s-22.755556-34.133333-22.755556-55.94074c0-21.807407 8.533333-41.718519 22.755556-55.940741 14.222222-13.274074 34.133333-22.755556 55.940741-22.755556z m451.318518 0c21.807407 0 41.718519 8.533333 55.940741 22.755556s22.755556 34.133333 22.755555 55.940741c0 21.807407-8.533333 41.718519-22.755555 55.94074s-34.133333 22.755556-55.940741 22.755556c-21.807407 0-41.718519-8.533333-55.940741-22.755556s-22.755556-34.133333-22.755555-55.94074c0-21.807407 8.533333-41.718519 22.755555-55.940741 14.222222-13.274074 34.133333-22.755556 55.940741-22.755556z m11.377778 66.370371l26.548148-21.807408 3.792593 4.740741-25.6 21.807407-4.740741-4.74074z m5.688889 18.962963l29.392592 16.118518-2.844444 5.688889-29.392593-16.118519 2.844445-5.688888z m-17.066667 12.325926l-4.740741 32.237037-6.637037-0.948149 4.740741-32.237037c2.844444 0 4.740741 0.948148 6.637037 0.948149z m-16.118518-11.377778l-33.185186 6.637037-0.948148-6.637037 32.237037-6.637037c0.948148 1.896296 0.948148 4.740741 1.896297 6.637037z m6.637037-20.85926l-13.274074-31.288888 5.688889-2.844445 13.274074 31.288889-5.688889 2.844444z m31.288889 11.377778l29.392592-18.014815c2.844444 5.688889 3.792593 12.325926 3.792593 19.911112 0 2.844444 0 6.637037-0.948148 9.481481l-32.237037-11.377778z m15.17037 42.666667c-7.585185 6.637037-17.066667 11.377778-27.496296 13.274074v-35.081481l27.496296 21.807407z m-32.237037-59.733333l-9.481482-35.081482h4.740741c10.42963 0 19.911111 2.844444 28.444445 7.585185l-23.703704 27.496297z m-20.859259 11.377777l-37.925926 1.896297c1.896296-12.325926 7.585185-23.703704 15.17037-32.237037l1.896296-1.896297 20.85926 32.237037z m1.896296 23.703704l-10.42963 33.185185c-4.740741-2.844444-9.481481-5.688889-13.274074-9.481481-2.844444-2.844444-5.688889-6.637037-8.533333-10.42963l32.237037-13.274074z m-426.666667-28.444444l25.6-21.807408 3.792593 4.740741-25.6 21.807407c0-1.896296-1.896296-3.792593-3.792593-4.74074z m5.688889 18.962963l29.392593 16.118518-2.844445 5.688889-29.392592-16.118519c1.896296-1.896296 2.844444-3.792593 2.844444-5.688888z m-16.118518 12.325926l-4.740741 32.237037-6.637037-0.948149 4.740741-32.237037c1.896296 0 4.740741 0.948148 6.637037 0.948149z m-16.118519-11.377778l-33.185185 6.637037-0.948148-6.637037 32.237037-6.637037c0 1.896296 0.948148 4.740741 1.896296 6.637037z m6.637037-20.85926l-13.274074-31.288888 5.688889-2.844445 13.274074 31.288889-5.688889 2.844444z m31.288889 11.377778l29.392593-18.014815c2.844444 5.688889 3.792593 12.325926 3.792592 19.911112 0 2.844444 0 6.637037-0.948148 9.481481l-32.237037-11.377778z m15.17037 42.666667c-7.585185 6.637037-17.066667 11.377778-27.496296 13.274074v-35.081481l27.496296 21.807407zM303.407407 592.592593l-9.481481-35.081482h4.740741c10.42963 0 19.911111 2.844444 28.444444 7.585185L303.407407 592.592593z m-20.859259 11.377777l-37.925926 1.896297c1.896296-12.325926 7.585185-23.703704 15.170371-32.237037l1.896296-1.896297 20.859259 32.237037z m0.948148 23.703704l-10.429629 33.185185c-4.740741-2.844444-9.481481-5.688889-13.274074-9.481481-2.844444-2.844444-5.688889-6.637037-8.533334-10.42963l32.237037-13.274074z"  /></svg>